<svg width="19" height="18" viewBox="0 0 19 18" fill="none" xmlns="http://www.w3.org/2000/svg">
<path d="M9.5 0C9.70256 7.11104e-05 9.90127 0.055041 10.0957 0.165039C10.2902 0.275092 10.4339 0.440119 10.5264 0.660156L12.6064 5.55859L17.9883 6.02637C18.2472 6.06306 18.4507 6.146 18.5986 6.27441C18.7465 6.4028 18.8577 6.56783 18.9316 6.76953C19.0055 6.97117 19.0194 7.17751 18.9736 7.38867C18.9278 7.6 18.8117 7.78778 18.626 7.95215L14.5488 11.4473L15.7695 16.6484C15.8248 16.8866 15.8061 17.1022 15.7139 17.2949C15.6214 17.4879 15.4916 17.6487 15.3252 17.7764C15.1589 17.9039 14.9648 17.977 14.7432 17.9961C14.5212 18.0152 14.3079 17.9602 14.1045 17.8311L9.5 15.0791L4.89453 17.8311C4.69118 17.9594 4.47866 18.0144 4.25684 17.9961C4.03491 17.9777 3.84027 17.9048 3.67383 17.7764C3.50738 17.648 3.37763 17.4872 3.28516 17.2949C3.19289 17.1029 3.17513 16.8874 3.23047 16.6484L4.45117 11.4473L0.373047 7.95215C0.188123 7.78705 0.0722302 7.59902 0.0263672 7.3877C-0.0194252 7.17654 -0.00572978 6.97043 0.0673828 6.76953C0.140569 6.56861 0.251853 6.40352 0.400391 6.27441C0.549065 6.14528 0.75261 6.06233 1.01074 6.02637L6.39258 5.55859L8.47363 0.660156C8.56606 0.440314 8.70902 0.275045 8.90332 0.165039C9.09788 0.0549698 9.29731 0 9.5 0Z" fill="#E65237"/>
</svg>
