<svg width="76" height="66" viewBox="0 0 76 66" fill="none" xmlns="http://www.w3.org/2000/svg">
<path d="M74.2688 11.9038L66.4761 9.45193L66.1284 9.60022C65.8063 10.1115 66.6014 12.7602 67.2048 13.1335C68.4243 13.8903 72.047 14.3965 73.6501 14.9155C75.8104 15.6134 75.7337 15.8384 75.8002 18.2187C73.0569 17.8965 70.4006 16.7563 67.5985 16.9071C67.3121 17.5284 67.1357 19.722 67.8056 20.0058C68.7618 20.4072 71.2852 20.5171 72.5481 20.8009C73.6859 21.0565 74.8363 21.3633 75.9025 21.8465C76.2757 22.409 75.4627 25.4028 75.4014 26.2389C73.8009 26.0804 72.2771 25.4514 70.6665 25.1676C67.6828 24.641 64.9881 24.6461 62.0199 25.298L62.792 19.0905C62.6846 14.036 61.6722 8.81788 58.7678 4.64033C59.1615 7.09982 59.384 9.45705 58.7653 11.9089C56.656 11.2518 54.7232 9.97605 52.4069 10.8095C49.0679 12.0111 49.0756 18.9652 50.2516 21.6625C52.0183 25.7122 58.052 23.3115 57.6199 19.3666L54.3627 20.0467L54.0687 16.4853L61.4574 15.6211C61.6466 15.7592 61.6262 15.9969 61.6492 16.2015C61.8128 17.6127 61.731 20.287 61.6492 21.7647C61.6159 22.3298 61.2785 25.2827 61.0867 25.5562L58.1977 26.6326C58.392 25.9883 58.3971 25.3364 58.4355 24.6716C58.4482 24.462 58.8241 24.2958 58.2948 24.3418C56.6612 27.1541 52.1666 30.9124 48.9171 28.5475C43.3308 24.485 43.3027 7.65717 47.4854 2.63847C50.4281 -0.894812 55.8098 0.874387 58.2923 4.06764C58.4073 3.64068 57.827 3.00919 57.5867 2.66915C56.9449 1.75899 56.1421 0.974096 55.5158 0.0537037C63.7073 -0.373256 71.0781 4.45369 74.2688 11.9089V11.9038Z" fill="#FFFBED"/>
<path d="M40.5926 18.0244C39.5392 15.9228 36.1721 14.8669 34.27 16.3958C30.7239 19.2439 31.7542 27.9595 37.0491 27.9697C38.7058 27.9697 40.452 26.8627 40.1809 25.0347C39.9918 24.4671 37.1999 24.8455 36.5633 24.2472L36.1849 20.8929C39.0637 21.3736 41.8019 21.0003 44.6039 20.3202C44.9568 24.0044 45.0565 27.7677 46.5189 31.2192L42.8194 32.1575C42.3567 32.0143 42.193 30.759 41.9655 30.3142C41.8734 30.1352 42.0141 30.0074 41.6408 30.0738C36.4866 36.7646 29.8163 29.7312 28.2849 23.9098C26.71 17.9323 29.2717 10.6689 34.3697 7.15607C36.0596 9.00452 36.7985 11.4691 38.0027 13.6193C39.2733 11.0856 40.2014 8.39604 42.0217 6.16665C42.3924 6.15642 44.4761 10.2343 44.3866 10.807C43.6529 12.0751 42.96 13.3764 42.3362 14.7033C41.9553 15.5163 41.5666 17.0835 41.1346 17.7099C40.9786 17.9374 40.9121 18.0908 40.59 18.0218L40.5926 18.0244Z" fill="#FFFBED"/>
<path d="M24.7056 0.621282C24.7338 0.82837 24.6877 1.00989 24.6213 1.2042C24.1687 2.52087 22.8521 4.36165 22.2615 5.92377C21.4971 7.94863 20.1292 12.6017 20.9934 14.5601C21.4178 15.524 22.3407 16.1631 23.1768 15.253C24.9766 10.9067 25.9482 6.19988 27.5768 1.76666C27.9909 1.46242 32.7258 4.85509 33.1093 5.71412C30.1487 9.07867 29.1491 13.7855 26.9606 17.5079C26.1348 18.9141 25.1582 19.6657 24.0102 20.691C23.8492 21.3787 24.6238 23.8356 24.8897 24.6256C25.5289 26.515 26.5285 28.2791 27.3799 30.0738C27.1166 30.3321 20.9627 27.2078 20.7786 26.8243C20.5358 24.5668 20.6303 21.9258 20.0219 19.7373C19.5591 18.0729 17.8973 16.4699 17.2044 14.711C15.7241 10.9604 16.6369 6.30982 18.0021 2.62314C18.1734 2.16038 18.7231 0.577819 18.9506 0.319598C19.6537 -0.483189 23.5833 0.460213 24.7031 0.618725L24.7056 0.621282Z" fill="#FFFBED"/>
<path d="M46.9688 56.0212C46.5265 55.5764 45.9921 54.2367 45.8413 53.6078C44.4454 47.753 49.3337 35.1155 53.2223 30.557C56.2878 26.965 58.6399 28.072 59.5961 32.3978C61.0738 39.0707 58.4098 47.5178 54.2527 52.8178C52.8976 54.5461 49.2135 58.2788 46.9662 56.0212H46.9688ZM54.3191 37.0023C51.3764 37.4319 49.5842 43.89 50.0112 46.3827C50.3103 48.1365 51.5145 48.5993 53.0357 47.7786C55.3597 46.5233 56.8962 40.914 56.3849 38.4826C56.142 37.3347 55.4747 36.8362 54.3191 37.0049V37.0023Z" fill="#FFFBED"/>
<path d="M18.5824 0.0485811C18.0174 1.27066 17.258 2.38535 16.6981 3.61255C13.6301 10.3314 13.9548 17.7457 16.67 24.5285L10.644 22.4243L9.41424 16.5773C8.74184 16.3293 5.62018 16.5722 5.40797 17.1909C5.09606 18.0985 6.33604 22.0587 6.1494 22.2326C5.47189 22.2735 4.69467 22.3528 4.03761 22.5138C2.65958 22.8539 1.52187 23.4828 0.215427 23.9532C-0.855808 16.2833 2.07666 7.49865 8.8211 3.29808C7.45585 6.56036 5.65597 9.8073 5.56904 13.4352L9.46537 12.6861C10.0202 10.4695 10.3628 8.24007 11.1144 6.06692C11.5056 4.942 12.8657 1.44195 13.85 0.958747C14.3895 0.692856 18.3369 -0.166177 18.5798 0.0460244L18.5824 0.0485811Z" fill="#FFFBED"/>
<path d="M51.4967 30.4599L49.5383 35.77C48.4901 36.3964 45.2918 37.0407 44.8904 38.1068C44.6986 38.6156 44.581 39.582 44.4711 40.1726C43.5302 45.2092 43.3845 52.2809 45.7826 56.9212C45.9846 57.3098 46.997 58.6162 46.9024 58.762L37.9107 65.4578L41.1653 38.792C41.1065 38.365 37.3329 39.5616 36.842 38.8866L37.1437 33.7094C42.1522 33.9599 46.9664 32.4055 51.4967 30.4599Z" fill="#FFFBED"/>
<path d="M36.167 33.7298L36.2898 38.884C36.0111 39.3519 32.4906 38.0301 32.0892 38.1273C31.7543 38.2091 31.7747 38.6974 31.7722 38.9684C31.7619 40.2672 32.3909 42.8264 32.644 44.2351C33.9249 51.3323 35.827 58.3222 37.7189 65.2686L29.5325 58.8233C29.3689 57.6549 29.8291 56.3971 29.8828 55.2363C30.0464 51.7644 29.6681 47.8144 29.2769 44.3502C29.0672 42.4889 28.7681 38.994 28.2568 37.3347C28.1392 36.9563 28.0829 36.7569 27.7634 36.4885C26.8481 35.7189 24.6647 35.1718 23.6599 34.277L22.0237 29.0256C22.1413 28.7495 22.3867 29.0128 22.5427 29.0819C23.7545 29.6162 24.8948 30.3448 26.1066 30.8741C29.351 32.293 32.6414 33.2671 36.167 33.7298Z" fill="#FFFBED"/>
<path d="M16.8362 25.8912L16.7697 26.6377L14.4559 31.6053C12.9679 30.5008 7.51718 27.7473 6.47918 30.3167C5.11137 33.7094 10.488 40.4487 14.167 40.418C14.5633 42.3918 15.4095 44.4422 16.2507 46.2727C17.0918 48.1033 18.1707 49.6987 18.9607 51.4985C13.3054 46.8327 7.37912 41.2924 3.8126 34.796C1.87722 31.2704 -1.32115 24.8711 4.6026 23.47C8.62165 22.519 13.2083 24.2651 16.8362 25.8937V25.8912Z" fill="#FFFBED"/>
<path d="M16.8107 32.0348C22.1771 31.0428 25.718 40.6353 26.9069 44.6135C27.6918 47.2366 28.9266 52.0048 28.2951 54.6049C27.3236 58.6086 22.9032 54.4745 21.4484 52.9379C18.135 49.4328 15.2486 43.9411 14.5915 39.1372C14.3103 37.0944 14.0802 32.541 16.8107 32.0373V32.0348ZM18.9148 38.5287C16.5371 39.0451 18.8023 44.8129 19.6537 46.1245C21.0138 48.226 24.2889 49.8981 24.1431 46.0401C24.0537 43.6701 22.0671 37.8435 18.9174 38.5287H18.9148Z" fill="#FFFBED"/>
<path d="M65.2463 26.0855C66.2459 29.1049 66.9362 32.3058 68.6211 35.044L70.6204 26.3284L74.8158 27.4175C75.2632 27.9314 73.1642 32.6484 72.7679 33.4537C71.0601 36.9256 68.5367 40.2263 65.9417 43.0795C65.6681 40.7197 65.709 38.2116 64.5432 36.0641C64.4588 35.9081 63.8094 34.7551 63.5538 35.0465C63.5333 36.2558 63.4924 37.575 63.3595 38.7741C63.1345 40.8092 62.7408 44.928 62.1246 46.7202C61.7079 47.9371 58.0826 50.2943 57.0471 51.3017C59.908 43.6317 62.1323 35.3508 59.729 27.2155C61.4701 26.5789 63.3671 25.9449 65.2463 26.0829V26.0855Z" fill="#FFFBED"/>
</svg>
