<svg width="156" height="30" viewBox="0 0 156 30" fill="none" xmlns="http://www.w3.org/2000/svg">
<path d="M25.8613 11.0876L27.5 18.9114H25.6225C25.5475 18.5839 25.4888 18.2414 25.4138 17.9139C25.3388 17.5864 25.4138 17.7501 25.22 17.7501H22.9413C22.9167 17.7459 22.8916 17.7468 22.8674 17.7528C22.8432 17.7589 22.8206 17.7699 22.8009 17.7852C22.7813 17.8005 22.765 17.8197 22.7533 17.8417C22.7415 17.8636 22.7344 17.8878 22.7325 17.9126C22.6275 18.2126 22.5238 18.5101 22.405 18.7926C22.285 19.0751 22.3 18.9264 22.255 18.9264H20.245V18.7476C21.2383 16.3934 22.2313 14.0347 23.2238 11.6714C23.2823 11.5108 23.3872 11.3713 23.5252 11.2705C23.6632 11.1697 23.828 11.1121 23.9988 11.1051C24.6538 11.0751 25.25 11.0901 25.8613 11.0901M24.4613 13.2814L23.4025 16.1276H25.0713L24.4613 13.2814ZM7.64 16.4076V16.2289C8.23625 14.5751 8.84625 12.9214 9.4275 11.2676C9.4275 11.1339 9.5475 11.0739 9.69625 11.0739H11.6775V11.2676L8.59375 18.7176C8.5791 18.7794 8.54184 18.8334 8.48931 18.869C8.43678 18.9047 8.3728 18.9193 8.31 18.9101H6.5825C6.4325 18.9101 6.37375 18.9101 6.32875 18.7164C5.77875 16.5714 5.21125 14.4264 4.66 12.2664C4.63315 12.1548 4.56357 12.0583 4.46625 11.9976C3.89135 11.6768 3.28208 11.4218 2.65 11.2376C2.65 11.2376 2.545 11.1626 2.5 11.1339C2.56347 11.1169 2.63028 11.1169 2.69375 11.1339H5.67375C5.79822 11.1149 5.92528 11.1225 6.04661 11.1561C6.16795 11.1897 6.28081 11.2485 6.37782 11.3288C6.47483 11.409 6.55379 11.5089 6.60952 11.6218C6.66526 11.7347 6.69652 11.858 6.70125 11.9839L7.55125 16.3476C7.54633 16.3824 7.54633 16.4178 7.55125 16.4526L7.64 16.4076ZM14.5825 18.6126L14.8813 16.8689L15.09 16.9889C15.8509 17.382 16.7234 17.5029 17.5625 17.3314C17.7229 17.3176 17.8751 17.2543 17.9978 17.1501C18.1206 17.0459 18.2078 16.9061 18.2475 16.7501C18.2635 16.5944 18.2287 16.4377 18.1483 16.3034C18.0678 16.1691 17.9461 16.0645 17.8013 16.0051C17.5025 15.8114 17.1763 15.6626 16.8925 15.4689C16.525 15.2641 16.1848 15.0138 15.88 14.7239C15.5708 14.354 15.4014 13.8872 15.4014 13.4051C15.4014 12.923 15.5708 12.4562 15.88 12.0864C16.3287 11.5964 16.9153 11.2538 17.5625 11.1039C18.5486 10.8568 19.5859 10.9086 20.5425 11.2526H20.6175L20.3338 12.8614C19.9577 12.7465 19.5743 12.6571 19.1863 12.5939C18.7993 12.5638 18.4107 12.5638 18.0238 12.5939C17.8841 12.6219 17.7553 12.6891 17.6525 12.7876C17.6029 12.8299 17.5631 12.8824 17.5358 12.9415C17.5085 13.0006 17.4944 13.065 17.4944 13.1301C17.4944 13.1952 17.5085 13.2596 17.5358 13.3187C17.5631 13.3779 17.6029 13.4304 17.6525 13.4726C17.8308 13.6368 18.0242 13.7809 18.2325 13.9051C18.62 14.1426 19.0225 14.3364 19.395 14.5901C19.7031 14.7785 19.9587 15.0417 20.1379 15.3552C20.3172 15.6688 20.4143 16.0225 20.4203 16.3836C20.4263 16.7447 20.3409 17.1015 20.1722 17.4208C20.0034 17.7401 19.7567 18.0116 19.455 18.2101C18.8611 18.6703 18.1472 18.9498 17.3988 19.0151C16.4411 19.119 15.4727 18.9806 14.5825 18.6126ZM11.275 18.9101L12.5563 11.0889H14.5975L13.3163 18.9101H11.275Z" fill="#FFFBED"/>
<path opacity="0.5" d="M65.0912 23.4098C63.4278 23.4101 61.8018 22.9171 60.4186 21.9932C59.0355 21.0693 57.9573 19.756 57.3206 18.2194C56.6838 16.6827 56.517 14.9918 56.8413 13.3604C57.1655 11.7289 57.9663 10.2303 59.1423 9.05396C60.3183 7.87763 61.8167 7.07643 63.448 6.75169C65.0793 6.42694 66.7703 6.59324 68.3071 7.22954C69.844 7.86585 71.1576 8.94358 72.0819 10.3265C73.0062 11.7093 73.4997 13.3353 73.4999 14.9986V14.9998C73.4976 17.2294 72.611 19.367 71.0346 20.9436C69.4582 22.5203 67.3207 23.4072 65.0912 23.4098Z" fill="#DED8C6"/>
<path d="M56.9088 23.4098C55.2454 23.4098 53.6195 22.9166 52.2364 21.9925C50.8534 21.0684 49.7755 19.7549 49.139 18.2182C48.5024 16.6815 48.3359 14.9905 48.6604 13.3591C48.9849 11.7278 49.7859 10.2292 50.962 9.05308C52.1382 7.87692 53.6367 7.07594 55.2681 6.75144C56.8995 6.42694 58.5904 6.59349 60.1272 7.23002C61.6639 7.86655 62.9773 8.94448 63.9014 10.3275C64.8255 11.7105 65.3188 13.3365 65.3188 14.9998C65.3165 17.2296 64.4297 19.3674 62.853 20.9441C61.2763 22.5207 59.1385 23.4075 56.9088 23.4098Z" fill="#FFFBED"/>
<path d="M110.342 11.7803C109.818 11.1075 109.144 10.5671 108.373 10.2027C108.307 8.80085 107.704 7.4783 106.688 6.50953C105.673 5.54077 104.323 5.00019 102.92 5H97.0699C96.722 5.00005 96.3841 5.11638 96.1099 5.3305C95.8357 5.54461 95.641 5.84423 95.5566 6.18173L92.0466 20.222C91.9891 20.452 91.9848 20.6921 92.0339 20.9239C92.0831 21.1558 92.1845 21.3735 92.3304 21.5603C92.4762 21.7472 92.6628 21.8983 92.8758 22.0023C93.0888 22.1063 93.3227 22.1603 93.5598 22.1604H96.2411L95.9486 23.3421C95.8912 23.5719 95.8868 23.8118 95.9359 24.0435C95.9849 24.2753 96.0861 24.4928 96.2318 24.6796C96.3774 24.8664 96.5637 25.0176 96.7765 25.1217C96.9893 25.2258 97.223 25.2801 97.4599 25.2804H100.531C100.879 25.28 101.216 25.1634 101.49 24.9493C101.764 24.7353 101.958 24.4359 102.042 24.0987L102.92 20.6003H106.04C107.063 20.6003 108.065 20.3129 108.933 19.7709C109.801 19.2288 110.498 18.454 110.947 17.5346C111.396 16.6153 111.577 15.5884 111.47 14.571C111.364 13.5536 110.973 12.5866 110.344 11.7803H110.342ZM93.5598 20.6003L97.0699 6.56003H102.92C103.828 6.55978 104.707 6.876 105.406 7.45423C106.106 8.03247 106.581 8.83651 106.752 9.72788C106.516 9.69673 106.278 9.68077 106.04 9.6801H100.58C100.232 9.67994 99.8938 9.79616 99.6194 10.0103C99.345 10.2244 99.1501 10.5242 99.0657 10.8618L96.6331 20.6003H93.5598ZM106.723 11.3006C106.715 11.3357 106.708 11.3708 106.699 11.4059C106.489 12.2495 106.003 12.9986 105.318 13.534C104.634 14.0694 103.789 14.3602 102.92 14.3602H99.7999L100.58 11.2401H106.04C106.269 11.2402 106.497 11.2605 106.723 11.3006ZM109.819 16.086C109.609 16.9296 109.123 17.6787 108.439 18.2141C107.754 18.7495 106.909 19.0403 106.04 19.0403H102.92C102.572 19.0404 102.234 19.1567 101.96 19.3708C101.686 19.5849 101.491 19.8845 101.407 20.222L100.529 23.7204H97.4599L99.4099 15.9202H102.92C104.119 15.9206 105.285 15.5253 106.237 14.7957C107.189 14.0661 107.874 13.0429 108.185 11.8846C108.537 12.118 108.849 12.4067 109.109 12.7397C109.476 13.2058 109.731 13.7499 109.855 14.33C109.978 14.9102 109.967 15.511 109.821 16.086H109.819Z" fill="#FFFBED"/>
<path d="M137.827 11.987L140.535 18.5182C142.297 17.6651 144.227 17.2143 146.186 17.1982C148.092 17.1974 149.971 17.6499 151.668 18.5182V11.987C150.985 11.5561 150.227 11.2576 149.434 11.107L148.047 7.62133C146.151 7.56756 144.266 7.9376 142.531 8.70446C138.606 10.4301 137.827 11.987 137.827 11.987Z" stroke="#FFFBED" stroke-width="0.5" stroke-linecap="round" stroke-linejoin="round"/>
<path d="M146.561 17.2071L148.26 21.1002C148.338 21.2781 148.379 21.4696 148.383 21.6636C148.387 21.8577 148.352 22.0507 148.281 22.2314C148.211 22.4121 148.105 22.5771 147.97 22.717C147.836 22.8568 147.675 22.9688 147.497 23.0464L139.723 26.4389C139.364 26.5957 138.957 26.6033 138.592 26.4602C138.227 26.3171 137.934 26.035 137.777 25.6758L130.456 8.9002C130.299 8.54091 130.291 8.13409 130.434 7.76923C130.578 7.40437 130.86 7.11133 131.219 6.95457L138.992 3.56145C139.17 3.48377 139.362 3.44191 139.556 3.43825C139.75 3.43459 139.943 3.46922 140.124 3.54014C140.304 3.61107 140.469 3.7169 140.609 3.8516C140.749 3.9863 140.861 4.14723 140.939 4.3252L142.801 8.5927" stroke="#FFFBED" stroke-width="0.5" stroke-linecap="round" stroke-linejoin="round"/>
</svg>
